<svg width="891" height="83" fill="none" xmlns="http://www.w3.org/2000/svg"><path d="M337.556 35.216V47.03h35.308c8.855 0 15.468.724 19.839 2.174 4.371 1.376 6.557 3.55 6.557 6.52 0 3.262-3.25 5.799-9.751 7.61-6.501 1.739-16.029 2.608-28.582 2.608-9.864 0-18.215-.87-25.052-2.609-6.838-1.81-11.714-4.383-14.628-7.716l-32.786 3.695c9.415 15.289 34.019 22.934 73.811 22.934 14.347 0 26.732-1.014 37.156-3.043 10.537-2.03 18.607-4.964 24.212-8.804 5.604-3.913 8.407-8.514 8.407-13.804 0-4.71-2.298-8.587-6.894-11.631-2.139-1.486-4.751-2.767-7.834-3.841 3.083-1.074 5.695-2.354 7.834-3.841 4.596-3.044 6.894-6.921 6.894-11.631 0-5.29-2.803-9.89-8.407-13.804-5.605-3.84-13.675-6.775-24.212-8.804C389.004 1.013 376.619 0 362.272 0c-39.792 0-64.396 7.645-73.811 22.934l32.786 3.695c2.914-3.332 7.79-5.905 14.628-7.716 6.837-1.74 15.188-2.609 25.052-2.609 12.553 0 22.081.87 28.582 2.609 6.501 1.81 9.751 4.347 9.751 7.608 0 2.97-2.186 5.145-6.557 6.521-4.371 1.45-10.984 2.174-19.839 2.174h-35.308zM24.222 19.787v62.46H0V0h40.953l30.715 61.505L102.133 0h41.453v82.246h-26.844V19.668L85.777 82.246h-30.34l-31.215-62.46zM183.792 0l42.454 42.791L264.103 0h29.475l-72.739 82.246h-29.475l19.2-21.693L149.992 0h33.8z" fill="#182126"/><path fill-rule="evenodd" clip-rule="evenodd" d="M458.969 0v82.246h27.394V59.651h85.018c17.216 0 31.173-13.354 31.173-29.825C602.554 13.353 588.597 0 571.381 0H458.969zm27.394 42.478h75.572c7.304 0 13.225-5.665 13.225-12.652 0-6.989-5.921-12.654-13.225-12.654h-75.572v25.306z" fill="#182126"/><path d="M771.631 19.787v62.46h-24.217V0h40.948l30.717 61.505L849.552 0H891v82.246h-26.846V19.668l-30.96 62.578h-30.346l-31.217-62.46z" fill="#182126"/><path d="M636.658 0l42.832 42.79L717.685 0h29.737l-73.389 82.246h-29.737l19.371-21.693L602.555 0h34.103z" fill="#182126"/></svg>