<svg width="15" height="13" viewBox="0 0 15 13" fill="none" xmlns="http://www.w3.org/2000/svg">
<g id="Group 1597880422">
<path id="Subtract" fill-rule="evenodd" clip-rule="evenodd" d="M11.0536 0.146447C10.8584 -0.0488155 10.5418 -0.0488155 10.3465 0.146447L7.34668 3.14645C7.35124 3.151 7.37114 3.17124 7.40156 3.20216C7.56385 3.36714 8.02549 3.83643 8.05362 3.85355L8.45407 3.4531L8.4502 3.44923L10.2381 1.66136L10.2472 1.65225L10.2472 1.65225C10.2922 1.60727 10.3443 1.55518 10.393 1.51629C10.4428 1.47642 10.5484 1.4 10.6975 1.3999C10.8466 1.39981 10.9523 1.4762 11.0024 1.51618C11.0513 1.55525 11.1036 1.60759 11.1487 1.65277L11.1573 1.66132L12.9452 3.44923L12.9437 3.45072L13.3465 3.85355C13.3515 3.84858 13.3727 3.82778 13.4048 3.79625C13.572 3.63205 14.0359 3.17664 14.0536 3.14645L11.0536 0.146447ZM11.2001 2.69407L10.6977 2.19169L10.2001 2.68931V13C10.2086 13 10.2417 13.0004 10.2911 13.001C10.5325 13.0039 11.1622 13.0113 11.2001 13V2.69407Z" fill="#182126"/>
<path id="Subtract_2" fill-rule="evenodd" clip-rule="evenodd" d="M3.13101 12.8477C3.3348 13.0508 3.6652 13.0508 3.86899 12.8477L7 9.7277L6.26201 8.9923L5.16941 10.0811L3.96213 11.2883L3.95302 11.2975C3.90801 11.3424 3.85588 11.3945 3.80723 11.4334C3.75735 11.4733 3.65175 11.5497 3.50274 11.5498C3.3536 11.5499 3.24787 11.4735 3.19784 11.4335C3.14895 11.3945 3.09664 11.3421 3.05149 11.2969L3.04293 11.2884L2.97816 11.2236V11.2246L0.737985 8.9923L0 9.7277L3.13101 12.8477ZM2.97816 10.2337V0H4.02183V10.2387L3.50251 10.758L2.97816 10.2337Z" fill="#182126"/>
</g>
</svg>
