<svg width="15" height="13" fill="none" xmlns="http://www.w3.org/2000/svg"><path d="M11.054.146a.5.5 0 00-.707 0l-3 3 .055.056c.162.165.623.634.652.652l.4-.4-.004-.005 1.788-1.788.01-.009c.044-.045.096-.097.145-.136a.486.486 0 01.304-.116c.15 0 .255.076.305.116.05.04.102.092.147.137l.008.008 1.788 1.788-.001.002.402.403.059-.058c.167-.164.63-.62.649-.65l-3-3zm.146 2.548l-.502-.502-.498.497V13l.091.001c.242.003.871.01.91-.001V2.694zM3.131 12.848a.523.523 0 00.738 0L7 9.728l-.738-.736-1.093 1.09-1.207 1.206-.009.01c-.045.044-.097.097-.146.135a.487.487 0 01-.304.117.486.486 0 01-.305-.117 1.691 1.691 0 01-.147-.136l-.008-.009-.065-.064-2.24-2.232L0 9.728l3.131 3.12zm-.153-2.614V0h1.044v10.239l-.52.519-.524-.524z" fill-rule="evenodd" clip-rule="evenodd" fill="#182126"/></svg>