<svg width="891" height="83" viewBox="0 0 891 83" fill="none" xmlns="http://www.w3.org/2000/svg">
<path d="M337.556 35.216V47.03H372.864C381.719 47.03 388.332 47.7543 392.703 49.204C397.074 50.5801 399.26 52.7541 399.26 55.7248C399.26 58.9864 396.01 61.5225 389.509 63.3332C383.008 65.0726 373.48 65.9417 360.927 65.9417C351.063 65.9417 342.712 65.0726 335.875 63.3332C329.037 61.5225 324.161 58.9496 321.247 55.6168L288.461 59.3117C297.876 74.6009 322.48 82.2461 362.272 82.2461C376.619 82.2461 389.004 81.2321 399.428 79.203C409.965 77.1738 418.035 74.2388 423.64 70.399C429.244 66.4855 432.047 61.8847 432.047 56.5951C432.047 51.885 429.749 48.0084 425.153 44.964C423.014 43.4775 420.402 42.1971 417.319 41.123C420.402 40.0489 423.014 38.7686 425.153 37.282C429.749 34.2377 432.047 30.361 432.047 25.6509C432.047 20.3614 429.244 15.7605 423.64 11.8471C418.035 8.00728 409.965 5.0722 399.428 3.04305C389.004 1.0139 376.619 -6.10352e-05 362.272 -6.10352e-05C322.48 -6.10352e-05 297.876 7.64515 288.461 22.9343L321.247 26.6293C324.161 23.2965 329.037 20.7235 335.875 18.9129C342.712 17.1734 351.063 16.3043 360.927 16.3043C373.48 16.3043 383.008 17.1734 389.509 18.9129C396.01 20.7235 399.26 23.2596 399.26 26.5212C399.26 29.4919 397.074 31.6659 392.703 33.042C388.332 34.4918 381.719 35.216 372.864 35.216H337.556Z" fill="#182126"/>
<path d="M24.2224 19.7869V82.2461H0V-3.05176e-05H40.9527L71.6685 61.5054L102.133 -3.05176e-05H143.586V82.2461H116.742V19.6679L85.777 82.2461H55.4369L24.2224 19.7869Z" fill="#182126"/>
<path d="M183.792 -6.10352e-05L226.246 42.7913L264.103 -6.10352e-05H293.578L220.839 82.2461H191.364L210.564 60.5528L149.992 -6.10352e-05H183.792Z" fill="#182126"/>
<path fill-rule="evenodd" clip-rule="evenodd" d="M458.969 -6.10352e-05V82.2461H486.363V59.6505H571.381C588.597 59.6505 602.554 46.2972 602.554 29.8258C602.554 13.3533 588.597 -6.10352e-05 571.381 -6.10352e-05H458.969ZM486.363 42.4782H561.935C569.239 42.4782 575.16 36.8131 575.16 29.8258C575.16 22.8374 569.239 17.1722 561.935 17.1722H486.363V42.4782Z" fill="#182126"/>
<path d="M771.631 19.7869V82.2461H747.414V-6.10352e-05H788.362L819.079 61.5053L849.552 -6.10352e-05H891V82.2461H864.154V19.6678L833.194 82.2461H802.848L771.631 19.7869Z" fill="#182126"/>
<path d="M636.658 -6.10352e-05L679.49 42.7913L717.685 -6.10352e-05H747.422L674.033 82.2461H644.296L663.667 60.5528L602.555 -6.10352e-05H636.658Z" fill="#182126"/>
</svg>
