<svg width="1400" height="560" viewBox="0 0 1400 560" fill="none" xmlns="http://www.w3.org/2000/svg">
<g clip-path="url(#clip0_1926_48996)">
<g filter="url(#filter0_f_1926_48996)">
<path d="M311.669 489.716C236.688 509.643 140.378 566.777 84.395 637.144C-93.8769 861.219 417.447 1013.56 650.628 894.398C849.071 792.987 1181.96 526.982 1060.97 377.662C984.238 282.97 861.535 228.543 737.297 299.636C663.559 341.831 585.969 456.07 509.664 482.122C449.974 502.501 371.495 473.817 311.669 489.716Z" fill="#FF8522" fill-opacity="0.1"/>
</g>
<path d="M10.0001 0C10 186.667 9.99992 560 10.0001 560" stroke="#E6E6E6" stroke-linecap="square"/>
<path d="M30.0001 0C30 186.667 29.9999 560 30.0001 560" stroke="#E6E6E6" stroke-linecap="square"/>
<path d="M50.0001 0C50 186.667 49.9999 560 50.0001 560" stroke="#E6E6E6" stroke-linecap="square"/>
<path d="M70.0001 0C70 186.667 69.9999 560 70.0001 560" stroke="#E6E6E6" stroke-linecap="square"/>
<path d="M90.0001 0C90 186.667 89.9999 560 90.0001 560" stroke="#E6E6E6" stroke-linecap="square"/>
<path d="M110 0C110 186.667 110 560 110 560" stroke="#E6E6E6" stroke-linecap="square"/>
<path d="M130 0C130 186.667 130 560 130 560" stroke="#E6E6E6" stroke-linecap="square"/>
<path d="M150 0C150 186.667 150 560 150 560" stroke="#E6E6E6" stroke-linecap="square"/>
<path d="M170 0C170 186.667 170 560 170 560" stroke="#E6E6E6" stroke-linecap="square"/>
<path d="M190 0C190 186.667 190 560 190 560" stroke="#E6E6E6" stroke-linecap="square"/>
<path d="M210 0C210 186.667 210 560 210 560" stroke="#E6E6E6" stroke-linecap="square"/>
<path d="M230 0C230 186.667 230 560 230 560" stroke="#E6E6E6" stroke-linecap="square"/>
<path d="M250 0C250 186.667 250 560 250 560" stroke="#E6E6E6" stroke-linecap="square"/>
<path d="M270 0C270 186.667 270 560 270 560" stroke="#E6E6E6" stroke-linecap="square"/>
<path d="M290 0C290 186.667 290 560 290 560" stroke="#E6E6E6" stroke-linecap="square"/>
<path d="M310 0C310 186.667 310 560 310 560" stroke="#E6E6E6" stroke-linecap="square"/>
<path d="M330 0C330 186.667 330 560 330 560" stroke="#E6E6E6" stroke-linecap="square"/>
<path d="M350 0C350 186.667 350 560 350 560" stroke="#E6E6E6" stroke-linecap="square"/>
<path d="M370 0C370 186.667 370 560 370 560" stroke="#E6E6E6" stroke-linecap="square"/>
<path d="M390 0C390 186.667 390 560 390 560" stroke="#E6E6E6" stroke-linecap="square"/>
<path d="M410 0C410 186.667 410 560 410 560" stroke="#E6E6E6" stroke-linecap="square"/>
<path d="M430.004 0C430.004 186.667 430.004 560 430.004 560" stroke="#E6E6E6" stroke-linecap="square"/>
<path d="M450.004 0C450.004 186.667 450.004 560 450.004 560" stroke="#E6E6E6" stroke-linecap="square"/>
<path d="M470.004 0C470.004 186.667 470.004 560 470.004 560" stroke="#E6E6E6" stroke-linecap="square"/>
<path d="M490.004 0C490.004 186.667 490.004 560 490.004 560" stroke="#E6E6E6" stroke-linecap="square"/>
<path d="M510.004 0C510.004 186.667 510.004 560 510.004 560" stroke="#E6E6E6" stroke-linecap="square"/>
<path d="M530.004 0C530.004 186.667 530.004 560 530.004 560" stroke="#E6E6E6" stroke-linecap="square"/>
<path d="M550.004 0C550.004 186.667 550.004 560 550.004 560" stroke="#E6E6E6" stroke-linecap="square"/>
<path d="M570.004 0C570.004 186.667 570.004 560 570.004 560" stroke="#E6E6E6" stroke-linecap="square"/>
<path d="M590.004 0C590.004 186.667 590.004 560 590.004 560" stroke="#E6E6E6" stroke-linecap="square"/>
<path d="M610.004 0C610.004 186.667 610.004 560 610.004 560" stroke="#E6E6E6" stroke-linecap="square"/>
<path d="M630.004 0C630.004 186.667 630.004 560 630.004 560" stroke="#E6E6E6" stroke-linecap="square"/>
<path d="M650.004 0C650.004 186.667 650.004 560 650.004 560" stroke="#E6E6E6" stroke-linecap="square"/>
<path d="M670.004 0C670.004 186.667 670.004 560 670.004 560" stroke="#E6E6E6" stroke-linecap="square"/>
<path d="M690.004 0C690.004 186.667 690.004 560 690.004 560" stroke="#E6E6E6" stroke-linecap="square"/>
<path d="M710.004 0C710.004 186.667 710.004 560 710.004 560" stroke="#E6E6E6" stroke-linecap="square"/>
<path d="M730.004 0C730.004 186.667 730.004 560 730.004 560" stroke="#E6E6E6" stroke-linecap="square"/>
<path d="M750.004 0C750.004 186.667 750.004 560 750.004 560" stroke="#E6E6E6" stroke-linecap="square"/>
<path d="M770.004 0C770.004 186.667 770.004 560 770.004 560" stroke="#E6E6E6" stroke-linecap="square"/>
<path d="M790.004 0C790.004 186.667 790.004 560 790.004 560" stroke="#E6E6E6" stroke-linecap="square"/>
<path d="M810.004 0C810.004 186.667 810.004 560 810.004 560" stroke="#E6E6E6" stroke-linecap="square"/>
<path d="M830.004 0C830.004 186.667 830.004 560 830.004 560" stroke="#E6E6E6" stroke-linecap="square"/>
<path d="M850.004 0C850.004 186.667 850.004 560 850.004 560" stroke="#E6E6E6" stroke-linecap="square"/>
<path d="M870.004 0C870.004 186.667 870.004 560 870.004 560" stroke="#E6E6E6" stroke-linecap="square"/>
<path d="M890.004 0C890.004 186.667 890.004 560 890.004 560" stroke="#E6E6E6" stroke-linecap="square"/>
<path d="M910.004 0C910.004 186.667 910.004 560 910.004 560" stroke="#E6E6E6" stroke-linecap="square"/>
<path d="M930.004 0C930.004 186.667 930.004 560 930.004 560" stroke="#E6E6E6" stroke-linecap="square"/>
<path d="M950.004 0C950.004 186.667 950.004 560 950.004 560" stroke="#E6E6E6" stroke-linecap="square"/>
<path d="M970.004 0C970.004 186.667 970.004 560 970.004 560" stroke="#E6E6E6" stroke-linecap="square"/>
<path d="M990.004 0C990.004 186.667 990.004 560 990.004 560" stroke="#E6E6E6" stroke-linecap="square"/>
<path d="M1010 0C1010 186.667 1010 560 1010 560" stroke="#E6E6E6" stroke-linecap="square"/>
<path d="M1030 0C1030 186.667 1030 560 1030 560" stroke="#E6E6E6" stroke-linecap="square"/>
<path d="M1050 0C1050 186.667 1050 560 1050 560" stroke="#E6E6E6" stroke-linecap="square"/>
<path d="M1070 0C1070 186.667 1070 560 1070 560" stroke="#E6E6E6" stroke-linecap="square"/>
<path d="M1090.01 0C1090.01 186.667 1090.01 560 1090.01 560" stroke="#E6E6E6" stroke-linecap="square"/>
<path d="M1110.01 0C1110.01 186.667 1110.01 560 1110.01 560" stroke="#E6E6E6" stroke-linecap="square"/>
<path d="M1130.01 0C1130.01 186.667 1130.01 560 1130.01 560" stroke="#E6E6E6" stroke-linecap="square"/>
<path d="M1150.01 0C1150.01 186.667 1150.01 560 1150.01 560" stroke="#E6E6E6" stroke-linecap="square"/>
<path d="M1170.01 0C1170.01 186.667 1170.01 560 1170.01 560" stroke="#E6E6E6" stroke-linecap="square"/>
<path d="M1190.01 0C1190.01 186.667 1190.01 560 1190.01 560" stroke="#E6E6E6" stroke-linecap="square"/>
<path d="M1210.01 0C1210.01 186.667 1210.01 560 1210.01 560" stroke="#E6E6E6" stroke-linecap="square"/>
<path d="M1230.01 0C1230.01 186.667 1230.01 560 1230.01 560" stroke="#E6E6E6" stroke-linecap="square"/>
<path d="M1250.01 0C1250.01 186.667 1250.01 560 1250.01 560" stroke="#E6E6E6" stroke-linecap="square"/>
<path d="M1270.01 0C1270.01 186.667 1270.01 560 1270.01 560" stroke="#E6E6E6" stroke-linecap="square"/>
<path d="M1290.01 0C1290.01 186.667 1290.01 560 1290.01 560" stroke="#E6E6E6" stroke-linecap="square"/>
<path d="M1310.01 0C1310.01 186.667 1310.01 560 1310.01 560" stroke="#E6E6E6" stroke-linecap="square"/>
<path d="M1330.01 0C1330.01 186.667 1330.01 560 1330.01 560" stroke="#E6E6E6" stroke-linecap="square"/>
<path d="M1350.01 0C1350.01 186.667 1350.01 560 1350.01 560" stroke="#E6E6E6" stroke-linecap="square"/>
<path d="M1370.01 0C1370.01 186.667 1370.01 560 1370.01 560" stroke="#E6E6E6" stroke-linecap="square"/>
<path d="M1390.01 0C1390.01 186.667 1390.01 560 1390.01 560" stroke="#E6E6E6" stroke-linecap="square"/>
<rect x="446" y="137" width="8" height="284" fill="#DFDDDD"/>
<rect x="466" y="137" width="8" height="284" fill="#DFDDDD"/>
<rect x="486" y="137" width="8" height="284" fill="#DFDDDD"/>
<rect x="506" y="137" width="8" height="284" fill="#DFDDDD"/>
<rect x="526" y="137" width="8" height="284" fill="#DFDDDD"/>
<rect x="846" y="137" width="8" height="284" fill="#DFDDDD"/>
<rect x="866" y="137" width="8" height="284" fill="#DFDDDD"/>
<rect x="886" y="137" width="8" height="284" fill="#DFDDDD"/>
<rect x="906" y="137" width="8" height="284" fill="#DFDDDD"/>
<rect x="926" y="137" width="8" height="284" fill="#DFDDDD"/>
<path d="M546 137H554V258L546 243.5V137Z" fill="#DFDDDD"/>
<path d="M566 137H574V299.5L566 283.5V137Z" fill="#DFDDDD"/>
<path d="M586 139L594 154.733V339.233L586 323.233V139Z" fill="#DFDDDD"/>
<path d="M606 179L614 194.715V379L606 363.019V179Z" fill="#DFDDDD"/>
<path d="M626 221L634 236.715V421L626 405.019V221Z" fill="#DFDDDD"/>
<path d="M646 262L654 275.493V420H646V262Z" fill="#DFDDDD"/>
<path d="M666 303L674 318.964V421H666V303Z" fill="#DFDDDD"/>
<path d="M706 313.898L714 298V421H706V313.898Z" fill="#DFDDDD"/>
<path d="M726 275.5L734 260V421H726V275.5Z" fill="#DFDDDD"/>
<path d="M746 236.27L754 220V389.329L746 405.5V236.27Z" fill="#DFDDDD"/>
<path d="M766 195.27L774 179V348.329L766 364.5V195.27Z" fill="#DFDDDD"/>
<path d="M786 155.27L794 139V308.329L786 324.5V155.27Z" fill="#DFDDDD"/>
<path d="M806 137H814V266L806 282.5V137Z" fill="#DFDDDD"/>
<path d="M686 341L690 349.5L694 341V421L686 421V341Z" fill="#DFDDDD"/>
<path d="M826 137H834V227L826 243.5V137Z" fill="#DFDDDD"/>
</g>
<rect x="0.5" y="0.5" width="1399" height="559" rx="7.5" stroke="#E6E6E6"/>
<defs>
<filter id="filter0_f_1926_48996" x="-132.609" y="87.1504" width="1399.38" height="1028.89" filterUnits="userSpaceOnUse" color-interpolation-filters="sRGB">
<feFlood flood-opacity="0" result="BackgroundImageFix"/>
<feBlend mode="normal" in="SourceGraphic" in2="BackgroundImageFix" result="shape"/>
<feGaussianBlur stdDeviation="90" result="effect1_foregroundBlur_1926_48996"/>
</filter>
<clipPath id="clip0_1926_48996">
<rect width="1400" height="560" rx="8" fill="white"/>
</clipPath>
</defs>
</svg>
