<svg width="28" height="29" viewBox="0 0 28 29" fill="none" xmlns="http://www.w3.org/2000/svg">
<path d="M2 22.5V6.5H5.64563V7.79032H3.45825V21.2097H5.64563V22.5H2Z" fill="black" fill-opacity="0.35"/>
<path d="M11.7258 18.4443C11.8272 18.4814 11.9321 18.5 12.0406 18.5C12.1491 18.5 12.254 18.4814 12.3554 18.4443C12.4568 18.4077 12.5549 18.3463 12.6497 18.2602L20 11.5874L18.8022 10.5L12.0815 16.6013L9.23869 14.0205L8 15.145L11.4315 18.2602C11.5264 18.3463 11.6245 18.4077 11.7258 18.4443Z" fill="#FF8522"/>
<path d="M22.3535 22.5V21.2097H24.5409V7.79032H22.3535V6.5H25.9991V22.5H22.3535Z" fill="black" fill-opacity="0.35"/>
</svg>
